<?xml version="1.0" standalone="no"?>
<!DOCTYPE svg PUBLIC "-//W3C//DTD SVG 20010904//EN"
 "http://www.w3.org/TR/2001/REC-SVG-20010904/DTD/svg10.dtd">
<svg version="1.0" xmlns="http://www.w3.org/2000/svg"
 width="512.000000pt" height="512.000000pt" viewBox="0 0 512.000000 512.000000"
 preserveAspectRatio="xMidYMid meet">
<g transform="translate(0.000000,512.000000) scale(0.100000,-0.100000)"
fill="#000000" stroke="none">
<path d="M2200 4704 c0 -385 1 -416 17 -410 60 23 430 74 663 91 97 8 355 -8
508 -31 192 -28 366 -92 499 -182 70 -47 201 -182 236 -243 55 -94 72 -172 71
-319 -1 -116 -5 -147 -28 -223 -14 -48 -40 -116 -57 -150 -76 -150 -318 -422
-519 -584 -313 -251 -703 -457 -1195 -632 -49 -18 -112 -40 -140 -50 l-50 -18
-3 -111 -3 -110 58 18 c219 68 551 199 738 290 369 179 651 372 880 604 233
235 336 397 386 610 l19 81 -5 -77 c-7 -98 -37 -213 -79 -303 -73 -155 -326
-441 -541 -611 -349 -276 -775 -488 -1390 -692 l-60 -20 -3 -156 -3 -156 616
0 c736 0 736 0 960 111 127 62 216 128 330 244 247 251 410 588 487 1008 17
94 21 166 25 456 3 220 1 389 -6 466 -43 455 -232 886 -511 1166 -187 187
-363 287 -588 334 -61 12 -177 15 -693 15 l-619 0 0 -416z"/>
<path d="M3439 4170 c203 -114 287 -271 252 -465 -24 -135 -158 -339 -316
-481 -474 -427 -1293 -757 -2002 -806 -364 -25 -662 40 -813 179 -218 200
-153 503 180 847 63 66 108 116 100 111 -34 -20 -160 -112 -230 -168 -246
-198 -421 -398 -518 -592 -104 -208 -117 -372 -43 -531 86 -183 323 -311 661
-356 120 -16 440 -16 590 0 766 82 1627 416 2200 852 646 493 765 1029 290
1305 -99 57 -256 113 -360 129 l-45 7 54 -31z"/>
<path d="M2200 920 l0 -50 93 0 c72 0 99 -4 123 -19 45 -27 66 -81 67 -165 0
-88 -15 -138 -54 -171 -28 -23 -38 -25 -130 -25 l-99 0 0 -50 0 -50 105 0
c115 0 141 8 187 57 54 57 73 117 73 233 0 88 -4 113 -23 155 -50 109 -97 135
-242 135 l-100 0 0 -50z"/>
<path d="M2620 680 l0 -290 40 0 40 0 0 290 0 290 -40 0 -40 0 0 -290z"/>
<path d="M2850 959 c-64 -26 -100 -85 -100 -163 0 -47 4 -60 30 -90 18 -20 65
-51 113 -74 45 -22 88 -46 95 -55 30 -35 -22 -87 -86 -87 -33 0 -82 34 -82 56
0 10 -13 14 -45 14 -49 0 -50 -1 -34 -51 24 -72 90 -119 165 -119 97 0 169 72
169 170 0 78 -26 107 -145 167 -75 38 -96 53 -98 71 -10 72 116 94 146 26 10
-20 19 -24 53 -24 41 0 41 0 34 33 -21 102 -123 162 -215 126z"/>
<path d="M3225 956 c-78 -36 -135 -138 -143 -252 -14 -214 139 -370 287 -294
34 17 101 84 101 100 0 3 -16 15 -36 28 l-36 24 -15 -21 c-18 -27 -65 -51 -97
-51 -29 0 -81 41 -101 80 -53 103 -7 267 83 295 32 9 88 -12 110 -42 l19 -26
37 22 37 23 -20 32 c-47 76 -155 115 -226 82z"/>
<path d="M3623 950 c-83 -42 -133 -145 -133 -270 0 -124 51 -229 129 -270 77
-39 153 -21 214 50 50 58 71 126 70 227 0 74 -4 90 -34 150 -61 120 -151 161
-246 113z m123 -99 c94 -58 100 -268 9 -339 -52 -41 -120 -19 -157 51 -33 62
-32 176 1 234 23 40 68 72 101 73 8 0 29 -9 46 -19z"/>
<path d="M3890 961 c0 -5 22 -72 49 -148 27 -76 72 -201 99 -278 47 -133 51
-140 78 -143 l29 -3 88 253 c49 139 95 267 102 283 12 26 13 -8 14 -252 l1
-283 175 0 175 0 0 50 0 50 -135 0 -136 0 3 68 3 67 98 3 97 3 0 49 0 50 -100
0 -100 0 0 70 0 70 135 0 135 0 0 50 0 50 -222 -2 -222 -3 -16 -45 c-9 -25
-38 -108 -64 -185 -27 -77 -52 -144 -56 -148 -4 -5 -38 80 -76 187 l-69 196
-42 0 c-24 0 -43 -4 -43 -9z"/>
<path d="M4747 963 c-4 -3 -7 -26 -7 -50 l0 -43 114 0 c99 0 117 -3 140 -21
29 -23 35 -63 12 -95 -12 -16 -31 -20 -138 -24 l-123 -5 -3 -167 -2 -168 45 0
45 0 0 120 0 121 57 -3 c51 -3 59 -6 78 -33 11 -17 31 -70 44 -118 l24 -87 43
0 42 0 -10 43 c-5 23 -22 82 -39 130 l-29 88 27 36 c39 51 44 150 11 207 -37
63 -73 76 -209 76 -63 0 -119 -3 -122 -7z"/>
<path d="M2221 174 c-31 -39 -29 -117 4 -149 30 -31 54 -32 84 -4 17 16 20 24
10 29 -7 5 -20 3 -29 -2 -24 -15 -48 -4 -60 27 -21 55 17 108 60 85 30 -16 45
-2 24 21 -25 28 -68 24 -93 -7z"/>
<path d="M2340 126 c0 -59 4 -78 21 -100 24 -31 52 -33 79 -6 17 17 20 33 20
100 0 63 -3 80 -15 80 -11 0 -15 -18 -17 -77 -3 -76 -4 -78 -28 -78 -24 0 -25
2 -28 78 -2 59 -6 77 -17 77 -12 0 -15 -16 -15 -74z"/>
<path d="M2492 188 c-28 -35 -17 -75 29 -98 22 -12 39 -26 36 -33 -5 -15 -57
-22 -57 -8 0 6 -7 11 -15 11 -8 0 -15 -4 -15 -10 0 -17 39 -50 60 -50 26 0 60
34 60 60 0 22 -10 32 -59 61 -31 19 -33 22 -18 37 15 14 18 14 35 -1 10 -9 22
-17 25 -17 12 0 8 35 -5 48 -16 16 -63 15 -76 0z"/>
<path d="M2706 103 c20 -54 37 -100 40 -102 8 -9 18 10 50 101 l33 93 0 -97 1
-98 60 0 c53 0 60 2 60 20 0 17 -7 20 -45 20 -38 0 -45 3 -45 19 0 15 8 21 32
23 22 2 34 9 36 21 3 14 -4 17 -32 17 -32 0 -36 3 -36 25 0 23 4 25 45 25 33
0 45 4 45 15 0 12 -15 15 -74 15 l-75 0 -20 -55 c-12 -31 -21 -61 -21 -67 0
-21 -14 3 -36 60 -12 32 -28 58 -37 60 -13 3 -9 -16 19 -95z"/>
<path d="M2970 185 c0 -11 11 -15 38 -15 41 0 63 -15 55 -36 -3 -9 -21 -14
-49 -14 l-44 0 0 -60 c0 -47 3 -60 15 -60 11 0 15 11 15 40 0 34 3 40 21 40
15 0 25 -11 36 -40 9 -22 22 -40 30 -40 16 0 16 -2 -2 51 -11 29 -12 46 -5 53
13 13 13 52 0 77 -14 25 -110 29 -110 4z"/>
<path d="M3131 176 c-45 -48 -33 -142 23 -167 74 -34 125 102 63 169 -26 28
-58 28 -86 -2z m73 -28 c31 -44 13 -108 -29 -108 -42 0 -60 64 -29 108 8 12
21 22 29 22 8 0 21 -10 29 -22z"/>
<path d="M3260 100 c0 -81 3 -100 15 -100 10 0 15 16 17 62 l3 63 35 -60 c28
-46 42 -61 62 -63 19 -2 28 2 33 17 9 30 80 30 88 1 3 -11 12 -20 21 -20 13 0
10 16 -19 96 -19 53 -37 99 -40 102 -9 10 -22 -16 -52 -103 l-28 -80 -3 93
c-2 73 -6 92 -17 92 -12 0 -15 -14 -15 -62 l-1 -63 -35 63 c-52 91 -64 84 -64
-38z m220 21 c0 -5 3 -16 6 -25 4 -12 0 -16 -16 -16 -16 0 -20 4 -16 16 3 9 6
20 6 25 0 5 5 9 10 9 6 0 10 -4 10 -9z"/>
<path d="M3640 120 c0 -67 3 -83 20 -100 26 -26 52 -25 78 3 19 20 22 35 22
100 0 61 -3 77 -15 77 -11 0 -15 -18 -17 -77 -3 -76 -4 -78 -28 -78 -24 0 -25
2 -28 78 -2 59 -6 77 -17 77 -12 0 -15 -17 -15 -80z"/>
<path d="M3780 100 l0 -100 50 0 c43 0 50 3 50 20 0 16 -7 20 -35 20 l-35 0 0
80 c0 64 -3 80 -15 80 -12 0 -15 -18 -15 -100z"/>
<path d="M3880 186 c0 -8 10 -16 23 -18 20 -3 22 -9 25 -85 2 -46 7 -83 12
-83 5 0 10 37 12 83 3 76 5 82 26 85 12 2 22 10 22 18 0 11 -15 14 -60 14 -45
0 -60 -3 -60 -14z"/>
<path d="M4010 100 c0 -82 3 -100 15 -100 12 0 15 18 15 100 0 82 -3 100 -15
100 -12 0 -15 -18 -15 -100z"/>
<path d="M4070 101 c0 -100 15 -141 22 -58 l4 42 19 -42 c10 -24 21 -43 25
-43 4 0 17 21 28 48 l20 47 1 -47 c1 -46 2 -48 30 -48 21 0 32 6 36 20 5 15
15 20 40 20 24 0 38 -6 45 -20 6 -11 17 -20 24 -20 9 0 3 28 -22 100 -20 55
-41 100 -46 100 -6 0 -24 -41 -41 -91 l-30 -92 -3 92 c-3 109 -20 121 -51 36
-12 -31 -21 -60 -21 -65 0 -6 -4 -10 -8 -10 -5 0 -17 28 -28 62 -31 96 -44 87
-44 -31z m243 -1 c4 -15 0 -20 -14 -20 -20 0 -23 8 -13 34 7 20 20 13 27 -14z"/>
<path d="M4360 185 c0 -9 9 -15 25 -15 25 0 25 -1 25 -85 0 -69 3 -85 15 -85
12 0 15 16 15 85 0 84 0 85 25 85 16 0 25 6 25 15 0 12 -14 15 -65 15 -51 0
-65 -3 -65 -15z"/>
<path d="M4500 100 l0 -100 61 0 c52 0 60 2 57 17 -2 13 -15 19 -46 21 -34 3
-42 7 -42 23 0 14 7 19 30 19 23 0 30 4 30 20 0 16 -7 20 -30 20 -25 0 -30 4
-30 25 0 23 4 25 45 25 33 0 45 4 45 15 0 12 -13 15 -60 15 l-60 0 0 -100z"/>
</g>
</svg>
