<svg xmlns="http://www.w3.org/2000/svg" xml:space="preserve" viewBox="0 0 581.28 87.36"><path fill="#243d73" d="M147.24 87.36C59.49 87.36 3.47 67.99 0 66.75l18.75-19.88-2.39-26.31c.29.1 29.41 10.16 77.67 15.05 44.36 4.5 114.49 5.43 196.74-15.68 173.35-44.48 285.82-.9 290.52.98L557.4 38.89l5.71 27.53c-.18-.07-25.89-9.98-70.63-14.77-41.24-4.42-107.61-5.28-189.54 15.75-58.26 14.95-111.09 19.96-155.7 19.96"/><path fill="#fdc304" d="m44.37 53.75 7.79 4.04-3.05 3.48-4.93-7.2.34 8.74-4.57-.92 3.83-7.95-7.46 4.75-1.46-4.39 8.81-.69-7.85-4.05 3.05-3.48 5.03 7.28-.44-8.82 4.57.92-3.71 7.92 7.33-4.72 1.46 4.39z"/><path fill="#fff" d="m93.27 50.68-8.91 18.53c-.63-.08-1.46-.26-3.04-.45-1.79-.21-2.92-.26-3.52-.33l-4.37-20.06 4.75.1 3.44 17.12 7.35-16zm2.21 9.67c.6-6.64.65-9.23.7-9.75.23.02 1.21.17 2.31.26 1.04.09 1.94.12 2.29.15-.08.52-.45 3.08-1.05 9.72-.72 7.97-.73 9.4-.77 9.92-.35-.03-.95-.17-2.22-.29-1.21-.11-1.89-.08-2.29-.12.04-.52.31-1.92 1.03-9.89m14.75 7.28c4.37.28 6.35.21 7.72.12l-.52 4.01c-.93.06-3.23.08-7.2-.18a46 46 0 0 1-6.49-.83c.03-.52.47-3.72.88-10.03.4-6.22.33-8.64.36-9.16.96-.05 3.72-.02 6.53.16 4.6.3 6.33.56 7.43.66l-.55 4.06c-1.04-.07-2.6-.29-6.71-.55q-1.18-.08-2.4-.13-.14 1.68-.3 4.22 1 .11 2.4.21c3.3.21 5.56.36 5.94.36l-.4 3.43c-1.31.06-2.56.04-4.76-.11a25 25 0 0 1-3.4-.42l-.26 4.02q.86.09 1.73.16m30.23-4.97c-.2 7.1-.09 8.59-.12 9.63-1.08.11-4.39.4-5.39.69a485 485 0 0 1-8.57-14.17c.19 1.34.3 2.91.24 4.79-.19 6.64-.11 8.21-.13 8.73-.32-.01-1.1-.12-2-.14-1.04-.03-2.03.03-2.35.02.03-1.04.2-1.85.43-10.06.19-6.67.07-8.88.09-9.4 1.02 0 3.78-.21 5-.33 1.1 2.09 6.26 10.76 9.31 15.9a26 26 0 0 1-.57-6.72c.19-6.64.05-8.21.07-8.74.23.01 1.27.12 2.2.15.87.02 2.03-.03 2.26-.02-.02.54-.29 3-.47 9.67m4.82.09c0-6.67-.17-9.25-.17-9.78.23 0 1.22.06 2.32.06 1.04 0 1.94-.06 2.29-.06-.03.52-.17 3.1-.17 9.78 0 8.01.12 9.43.12 9.95-.35 0-.96-.09-2.23-.09-1.22 0-1.89.09-2.29.09-.01-.52.13-1.94.13-9.95m35.12 9.12c-.43.02-.96-.02-2.73.05-1.27.05-2 .14-2.32.15l-1.25-3.78c-.8.21-1.99.4-3.87.47-2 .08-3.19-.02-4.04-.16l-.98 3.87c-.32.01-1.02-.02-2.15.03-1.68.07-2 .14-2.4.15l5.75-20.02c.29-.01 1.65-.15 3.36-.22s3.05-.03 3.34-.04zm-7.35-6.83-2.99-9.05-.64.02-2.37 9.26c.75 0 1.74-.04 3.07-.09zm33.36-8.47c.38 4.36-1.81 8.33-6.95 8.78-1.47.13-2.85.02-3.98-.21.41 4.42.56 5.1.6 5.56-.32.03-1.16.04-2.11.13-1.13.1-1.99.23-2.36.26-.05-.58.02-1.49-.73-10.09-.55-6.33-.92-8.53-.97-9.14.65-.17 3.9-1.04 7.22-1.33 5.65-.48 8.91 1.79 9.28 6.04m-4.32.55c-.17-1.96-.97-2.8-4.38-2.5q-1.73.15-3.11.36.17 2.33.46 5.58l.08.92q1.13 0 2.55-.11c3.49-.3 4.62-1.71 4.4-4.25m15.65 4.99q-1.65.08-2.83-.01c.68 5.44.89 6.17.95 6.66-.32.04-1.16.08-2.11.2-1.12.13-2.04.3-2.38.34-.07-.58-.04-1.78-.95-9.38-.86-7.17-1.28-9.19-1.35-9.8.65-.2 3.92-1.17 7.6-1.62 5.3-.64 8.55 1.63 9.04 5.69a6.6 6.6 0 0 1-4.13 7.16c1.59 2.03 3.9 4.5 6.03 5.73l-5.15 1.41a28 28 0 0 1-4.72-6.38m-.84-9.48q-1.85.23-3.05.42c.18 1.7.42 3.78.67 5.82 1.07-.1 2.11-.2 3.03-.31 3.51-.42 4.01-2.09 3.82-3.67-.16-1.38-.85-2.7-4.47-2.26m12.55 4.45c-1.01-6.42 3.1-10.67 8.71-11.56 5.58-.88 10.84 1.9 11.85 8.32 1.01 6.39-3.04 10.87-8.68 11.76s-10.87-2.13-11.88-8.52m15.93-2.48c-.6-3.78-3.22-5.54-6.57-5.01s-5.31 3.01-4.71 6.79 3.22 5.69 6.6 5.15c3.37-.53 5.27-3.15 4.68-6.93m23.79-14.17-2.8 20.37c-.63.12-1.47.2-3.03.5-1.77.34-2.86.65-3.46.76L249.56 44.3l4.55-1.36 8.52 15.25 2.09-17.49zm21.79 15c-.42.1-.95.15-2.67.54-1.24.28-1.94.5-2.25.57l-1.92-3.49c-.75.35-1.88.75-3.72 1.17-1.95.44-3.14.56-4 .58l-.26 3.98c-.31.07-1 .17-2.11.42-1.64.37-1.94.5-2.34.59l2-20.73c.28-.06 1.59-.45 3.26-.83s2.99-.59 3.27-.65zm-8.47-5.37-4.59-8.36-.62.14-.64 9.54c.74-.14 1.7-.36 3-.65zm17.19-3.47c-1.08.21-2.02.29-2.81.34 1.35 5.31 1.64 6.02 1.76 6.5-.31.08-1.14.22-2.07.45-1.1.27-1.98.55-2.32.64-.14-.56-.26-1.76-2.1-9.19-1.74-7.01-2.41-8.97-2.55-9.56.62-.27 3.75-1.65 7.35-2.54 5.18-1.29 8.69.56 9.67 4.53a6.6 6.6 0 0 1-3.22 7.61c1.83 1.82 4.43 3.98 6.7 4.94l-4.93 2.03a27 27 0 0 1-5.48-5.75m-2.01-9.3q-1.8.45-2.97.8c.38 1.67.89 3.7 1.38 5.69 1.05-.23 2.07-.45 2.97-.68 3.43-.85 3.73-2.57 3.34-4.12-.33-1.35-1.17-2.57-4.72-1.69m21.05 7.37a56 56 0 0 0 7.45-2.03l.61 3.99c-.88.31-3.08.98-6.96 1.83-2.27.5-4.82.92-6.46 1.01-.11-.51-.58-3.7-1.94-9.88-1.35-6.09-2.09-8.39-2.2-8.9.91-.32 3.57-1.06 6.32-1.66 4.5-.99 6.23-1.23 7.32-1.44l.6 4.06c-1.02.22-2.57.45-6.59 1.34q-1.16.25-2.34.55.33 1.65.88 4.14 1-.17 2.36-.46c3.23-.71 5.44-1.2 5.8-1.31l.57 3.41a40 40 0 0 1-7.99 1.76l.87 3.94z"/><path fill="#fdc304" d="m349.41 33.31 8.72.99-1.6 4.34-7.18-4.95 3.45 8.04-4.6.77.73-8.8-5.26 7.11-2.94-3.57 7.98-3.8-8.78-.97 1.6-4.34 7.3 4.99-3.57-8.07 4.6-.77-.63 8.72 5.16-7.03 2.94 3.57z"/></svg>